<?xml version="1.0" encoding="UTF-8"?>
<svg xmlns="http://www.w3.org/2000/svg" xmlns:xlink="http://www.w3.org/1999/xlink" viewBox="0 0 30 30" width="30px" height="30px">
<g id="surface2596607">
<path style=" stroke:none;fill-rule:nonzero;fill:rgb(18.039216%,80.000001%,44.313726%);fill-opacity:1;" d="M 5.398438 2.398438 C 3.75 2.398438 2.398438 3.75 2.398438 5.398438 L 2.398438 24.601562 C 2.398438 26.25 3.75 27.601562 5.398438 27.601562 L 15.5 27.601562 C 15.5625 27.609375 15.628906 27.609375 15.695312 27.601562 L 19.097656 27.601562 C 19.164062 27.609375 19.230469 27.609375 19.296875 27.601562 L 24.601562 27.601562 C 26.25 27.601562 27.601562 26.25 27.601562 24.601562 L 27.601562 5.398438 C 27.601562 3.75 26.25 2.398438 24.601562 2.398438 Z M 5.398438 3.601562 L 24.601562 3.601562 C 25.601562 3.601562 26.398438 4.398438 26.398438 5.398438 L 26.398438 24.601562 C 26.398438 25.601562 25.601562 26.398438 24.601562 26.398438 L 19.800781 26.398438 L 19.800781 18 L 22.09375 18 L 22.933594 13.800781 L 19.800781 13.800781 L 19.800781 12.601562 C 19.800781 12.265625 19.832031 12.238281 19.945312 12.167969 C 20.054688 12.09375 20.402344 12 21 12 L 22.800781 12 L 22.800781 8.621094 L 22.457031 8.457031 C 22.457031 8.457031 21.078125 7.800781 19.199219 7.800781 C 17.851562 7.800781 16.742188 8.335938 16.03125 9.226562 C 15.320312 10.113281 15 11.300781 15 12.601562 L 15 13.800781 L 13.199219 13.800781 L 13.199219 18 L 15 18 L 15 26.398438 L 5.398438 26.398438 C 4.398438 26.398438 3.601562 25.601562 3.601562 24.601562 L 3.601562 5.398438 C 3.601562 4.398438 4.398438 3.601562 5.398438 3.601562 Z M 19.199219 9 C 20.449219 9 21.230469 9.273438 21.601562 9.421875 L 21.601562 10.800781 L 21 10.800781 C 20.308594 10.800781 19.757812 10.855469 19.289062 11.160156 C 18.824219 11.460938 18.601562 12.035156 18.601562 12.601562 L 18.601562 15 L 21.46875 15 L 21.109375 16.800781 L 18.601562 16.800781 L 18.601562 26.398438 L 16.199219 26.398438 L 16.199219 16.800781 L 14.398438 16.800781 L 14.398438 15 L 16.199219 15 L 16.199219 12.601562 C 16.199219 11.5 16.476562 10.585938 16.96875 9.976562 C 17.460938 9.363281 18.148438 9 19.199219 9 Z M 19.199219 9 "/>
</g>
</svg>
